# xmcd
#
# Track frame offsets: 
#        150
#        9709
#        25337
#        33881
#        37243
#        47100
#        52756
#        65029
#        73720
#        86007
#        90280
#        103468
#        110799
#        121833
#        129890
#        138688
#        145024
#        156795
#        169492
#        173006
#        179101
#        195492
#        216242
#        229508
#        232757
#        237973
#        254118
#        281123
#        293140
#        302350
#
# Disc length: 4152 seconds
#
# Revision: 0
# Processed by: cddbd v1.5.2PL0 Copyright (c) Steve Scherf et al.
# Submitted via: ExactAudioCopy v0.95b3
#
DISCID=b810361e
DTITLE=The Beatles  - More River Rhine  FLAC
DYEAR=1900
DGENRE=
TTITLE0=Get Back (Fast Version - Get Back (Fast Version)
TTITLE1=I've Got A Feeling - I've Got A Feeling
TTITLE2=Oh! - Darling
TTITLE3=Gimme Some Truth - Gimme Some Truth
TTITLE4=Yakety Yak - Hi Ho Silver
TTITLE5=Let It Down - Let It Down
TTITLE6=Across The Universe - Across The Universe
TTITLE7=Rock And Roll Music - Rock And Roll Music
TTITLE8=Watching - Rainbows
TTITLE9=Looking Out The Window - Looking Out The Window
TTITLE10=She Came In Through The Bathroom Window - She Came In Through
TTITLE10=The Bathroom Window
TTITLE11=Child Of Nature - Child Of Nature
TTITLE12=Golden - Slumbers
TTITLE13=Chi Chi Cha - Chi Chi Cha
TTITLE14=Paul's Piano Piece - Paul's Piano Piece
TTITLE15=Something With John - Something With John
TTITLE16=High - heel Sneakers
TTITLE17=Old Brown Shoe - Old Brown Shoe
TTITLE18=Another - Day
TTITLE19=Back Seat Of My Car - Back Seat Of My Car
TTITLE20=Better Get Home (Commonwealth - Better Get Home (Commonwealth
TTITLE20=)
TTITLE21=Get Back (Slow Version - Get Back (Slow Version)
TTITLE22=The House Of The Rising Sun - The House Of The Rising Sun
TTITLE23=Shakin' In The 60s - Shakin' In The 60s
TTITLE24=One After 909 - One After 909
TTITLE25=Don't Let Me Down - Don't Let Me Down
TTITLE26=Get - Off
TTITLE27=Let It Be - Let It Be
TTITLE28=Two Of Us - Two Of Us
TTITLE29=Tennessee - Tennessee
EXTD=
EXTT0=
EXTT1=
EXTT2=
EXTT3=
EXTT4=
EXTT5=
EXTT6=
EXTT7=
EXTT8=
EXTT9=
EXTT10=
EXTT11=
EXTT12=
EXTT13=
EXTT14=
EXTT15=
EXTT16=
EXTT17=
EXTT18=
EXTT19=
EXTT20=
EXTT21=
EXTT22=
EXTT23=
EXTT24=
EXTT25=
EXTT26=
EXTT27=
EXTT28=
EXTT29=
PLAYORDER=
